HIERARCHY
ROOT Hips
{
	OFFSET 0.000000 0.000000 0.000000
	CHANNELS 6 Xposition Yposition Zposition Xrotation Yrotation Zrotation
	JOINT LeftUpLeg_virtual
	{
		OFFSET 0.000000 0.000000 0.000000
		CHANNELS 3 Xrotation Yrotation Zrotation
		JOINT LeftUpLeg
		{
			OFFSET 13.026900 -6.336304 -1.092800
			CHANNELS 3 Xrotation Yrotation Zrotation
			JOINT LeftLeg
			{
				OFFSET 0.524474 -46.096886 9.782700
				CHANNELS 3 Xrotation Yrotation Zrotation
				JOINT LeftFoot
				{
					OFFSET -0.524474 -53.427422 -12.948200
					CHANNELS 3 Xrotation Yrotation Zrotation
					JOINT LeftToeBase
					{
						OFFSET 0.192200 -14.009700 16.364100
						CHANNELS 3 Xrotation Yrotation Zrotation
						JOINT LeftToe_End
						{
							OFFSET -1.784700 -0.561700 9.474800
							CHANNELS 3 Xrotation Yrotation Zrotation
							End Site
							{
								OFFSET 0 0 0
							}
						}
					}
				}
			}
		}
	}
	JOINT RightUpLeg_virtual
	{
		OFFSET 0.000000 0.000000 0.000000
		CHANNELS 3 Xrotation Yrotation Zrotation
		JOINT RightUpLeg
		{
			OFFSET -12.883000 -6.336304 -1.092800
			CHANNELS 3 Xrotation Yrotation Zrotation
			JOINT RightLeg
			{
				OFFSET -0.524587 -46.096825 9.782800
				CHANNELS 3 Xrotation Yrotation Zrotation
				JOINT RightFoot
				{
					OFFSET 0.524587 -53.427383 -12.948300
					CHANNELS 3 Xrotation Yrotation Zrotation
					JOINT RightToeBase
					{
						OFFSET -0.192200 -14.009700 16.364100
						CHANNELS 3 Xrotation Yrotation Zrotation
						JOINT RightToe_End
						{
							OFFSET 1.784700 -0.561700 9.474800
							CHANNELS 3 Xrotation Yrotation Zrotation
							End Site
							{
								OFFSET 0 0 0
							}
						}
					}
				}
			}
		}
	}
	JOINT Spine_virtual
	{
		OFFSET 0.000000 0.000000 0.000000
		CHANNELS 3 Xrotation Yrotation Zrotation
		JOINT Spine
		{
			OFFSET 0.072000 7.257294 -0.789700
			CHANNELS 3 Xrotation Yrotation Zrotation
			JOINT Spine1
			{
				OFFSET 0.000000 12.508769 -0.658067
				CHANNELS 3 Xrotation Yrotation Zrotation
				JOINT Spine1_split
				{
					OFFSET 0.000000 12.508769 -0.658067
					CHANNELS 3 Xrotation Yrotation Zrotation
					JOINT Spine2
					{
						OFFSET 0.000000 12.508769 -0.658067
						CHANNELS 3 Xrotation Yrotation Zrotation
						JOINT Neck_virtual
						{
							OFFSET 0.000000 0.000000 0.000000
							CHANNELS 3 Xrotation Yrotation Zrotation
							JOINT Neck
							{
								OFFSET 0.000000 14.033295 7.520400
								CHANNELS 3 Xrotation Yrotation Zrotation
								JOINT Head
								{
									OFFSET 0.000000 8.198502 5.703100
									CHANNELS 3 Xrotation Yrotation Zrotation
									JOINT HeadTop_End
									{
										OFFSET 0.000000 17.760803 13.332701
										CHANNELS 3 Xrotation Yrotation Zrotation
										End Site
										{
											OFFSET 0 0 0
										}
									}
								}
							}
						}
						JOINT LeftShoulder_virtual
						{
							OFFSET 0.000000 0.000000 0.000000
							CHANNELS 3 Xrotation Yrotation Zrotation
							JOINT LeftShoulder
							{
								OFFSET 6.292450 5.785301 -0.669000
								CHANNELS 3 Xrotation Yrotation Zrotation
								JOINT LeftShoulder_split
								{
									OFFSET 6.292450 5.785301 -0.669000
									CHANNELS 3 Xrotation Yrotation Zrotation
									JOINT LeftArm
									{
										OFFSET 13.907140 -6.093903 1.965100
										CHANNELS 3 Xrotation Yrotation Zrotation
										JOINT LeftForeArm
										{
											OFFSET 34.140198 0.000000 0.000000
											CHANNELS 3 Xrotation Yrotation Zrotation
											JOINT LeftHand
											{
												OFFSET 40.960209 0.000000 0.000000
												CHANNELS 3 Xrotation Yrotation Zrotation
												End Site
												{
													OFFSET 0 0 0
												}
											}
										}
									}
								}
							}
						}
						JOINT RightShoulder_virtual
						{
							OFFSET 0.000000 0.000000 0.000000
							CHANNELS 3 Xrotation Yrotation Zrotation
							JOINT RightShoulder
							{
								OFFSET -6.292450 5.785301 -0.669000
								CHANNELS 3 Xrotation Yrotation Zrotation
								JOINT RightShoulder_split
								{
									OFFSET -6.292450 5.785301 -0.669000
									CHANNELS 3 Xrotation Yrotation Zrotation
									JOINT RightArm
									{
										OFFSET -13.907140 -6.093903 1.965100
										CHANNELS 3 Xrotation Yrotation Zrotation
										JOINT RightForeArm
										{
											OFFSET -34.140198 0.000000 0.000000
											CHANNELS 3 Xrotation Yrotation Zrotation
											JOINT RightHand
											{
												OFFSET -40.960209 0.000000 0.000000
												CHANNELS 3 Xrotation Yrotation Zrotation
												End Site
												{
													OFFSET 0 0 0
												}
											}
										}
									}
								}
							}
						}
					}
				}
			}
		}
	}
}
MOTION
Frames: 4
Frame Time: 0.03333333
-2.391585 77.276703 -99.317108 0.000000 0.000000 0.000000 39.510063 -69.997432 29.165662 -72.334674 -23.005368 28.043766 39.267079 -9.710938 7.442234 17.683280 -3.289966 -23.019908 -4.117767 0.686335 0.980507 0.000000 0.000000 0.000000 40.541728 -70.667350 30.633084 -5.097137 -1.229381 -34.361042 30.366990 0.683333 -2.269765 5.325338 -27.262951 39.588842 -3.024170 0.523758 -1.568677 0.000000 0.000000 0.000000 38.473127 -66.707241 27.946323 1.582416 10.710453 -3.266579 -2.685868 4.989061 0.303712 0.972186 -2.999597 1.410722 0.000000 0.000000 0.000000 -1.388160 3.094223 0.679367 10.532769 5.158587 -6.209470 5.032546 18.385042 9.652238 0.000000 0.000000 0.000000 -2.137589 3.572425 0.679278 3.330538 3.562576 -13.151122 3.751409 0.646932 1.755094 -51.206584 -31.765045 -49.825530 -2.852194 -77.334175 -0.890870 0.000000 0.000000 0.000000 -2.417251 3.231168 0.708693 -13.680905 -1.214783 -1.022749 -1.469844 -1.658062 -1.299703 -106.081403 35.372969 120.698595 -2.986725 28.856866 2.701144 0.000000 0.000000 0.000000 
-1.592049 79.258705 -106.582794 0.000000 0.000000 0.000000 42.827738 -70.966321 32.191863 -71.299723 -19.505676 28.131825 35.666165 -7.760344 7.046421 19.193175 -1.249110 -19.870699 -4.637335 0.588936 0.257364 0.000000 0.000000 0.000000 40.539444 -71.386562 30.893513 -10.222993 -2.670793 -30.045251 39.771522 0.223775 -0.834389 -2.211231 -27.111811 35.893208 -1.057791 0.523793 -1.892657 0.000000 0.000000 0.000000 39.690465 -67.644404 29.136153 1.561007 9.672173 -2.945805 -2.733077 4.379346 0.487984 0.712126 -1.972789 1.212194 0.000000 0.000000 0.000000 -1.340473 2.451726 0.919925 10.664706 5.559226 -6.264060 4.644567 19.336257 8.980478 0.000000 0.000000 0.000000 -2.167158 2.958909 0.937149 3.304662 3.537795 -13.003110 4.749468 1.015772 1.562945 -50.029537 -31.656759 -49.786191 -2.713683 -78.333841 -0.732019 0.000000 0.000000 0.000000 -2.478411 2.550919 0.950377 -13.870089 -1.731886 -1.777829 -0.748894 -1.133834 -1.735826 -105.789166 35.243499 120.709264 -3.275806 28.988088 2.924709 0.000000 0.000000 0.000000 
-0.855333 81.765884 -113.128448 0.000000 0.000000 0.000000 45.062043 -71.291739 34.080072 -73.007318 -15.860879 27.192308 35.474954 -5.948676 5.964682 19.997383 -0.262110 -15.732572 -4.739270 0.535218 -0.452170 0.000000 0.000000 0.000000 40.710533 -71.749088 31.224797 -13.760116 -5.213765 -24.873428 46.561342 -0.002672 0.486229 -9.580700 -26.664553 32.491654 -0.199956 0.447145 -1.678776 0.000000 0.000000 0.000000 41.377501 -68.250174 30.210548 1.427252 8.613147 -2.511984 -2.735644 3.601609 0.708634 0.649700 -0.840556 0.871929 0.000000 0.000000 0.000000 -1.365145 1.613505 1.182234 10.742809 5.881826 -6.276276 3.944237 20.390348 8.270021 0.000000 0.000000 0.000000 -2.200951 2.187873 1.210613 3.284382 3.422040 -12.658900 5.519332 1.771173 1.353351 -49.204024 -31.876274 -49.648184 -1.875149 -78.841912 0.010858 0.000000 0.000000 0.000000 -2.525297 1.737057 1.212194 -14.107131 -2.312872 -2.574926 -0.194601 -0.690080 -2.235641 -106.111688 35.162599 121.223632 -3.575057 27.909744 3.060167 0.000000 0.000000 0.000000 
-0.422714 84.497513 -118.499344 0.000000 0.000000 0.000000 45.763927 -70.856662 34.517812 -76.312672 -12.619517 25.503414 37.752419 -4.629222 4.422568 20.110744 -0.111303 -11.627338 -4.211106 0.510375 -0.916251 0.000000 0.000000 0.000000 40.489976 -71.446402 31.099357 -15.392818 -8.179549 -20.140319 49.321728 -0.095648 1.426073 -15.093661 -25.902570 30.316676 -0.876447 0.296666 -1.040337 0.000000 0.000000 0.000000 42.899257 -68.572039 30.919761 1.198092 7.670804 -2.084658 -2.685901 2.874103 0.887014 0.610193 0.326848 0.589198 0.000000 0.000000 0.000000 -1.465248 0.816405 1.353821 10.738702 6.070045 -6.265741 3.072442 21.333929 7.751456 0.000000 0.000000 0.000000 -2.240613 1.457743 1.405895 3.276569 3.325634 -12.149580 6.019440 2.912433 1.138693 -48.819481 -32.153047 -49.378419 -0.737969 -78.963776 0.971223 0.000000 0.000000 0.000000 -2.543899 0.997038 1.394802 -14.360194 -2.969480 -3.258819 0.192110 -0.440565 -2.554478 -106.913197 35.268966 122.318456 -3.750025 26.291403 3.048252 0.000000 0.000000 0.000000 
